<svg width="24" height="24" viewBox="0 0 24 24" fill="none" xmlns="http://www.w3.org/2000/svg">
<path fill-rule="evenodd" clip-rule="evenodd" d="M11.7479 2.59615C6.69351 2.59615 2.59615 6.69351 2.59615 11.7479C2.59615 16.8022 6.69351 20.8996 11.7479 20.8996C16.8022 20.8996 20.8996 16.8022 20.8996 11.7479C20.8996 6.69351 16.8022 2.59615 11.7479 2.59615ZM1 11.7479C1 5.81198 5.81198 1 11.7479 1C17.6837 1 22.4957 5.81198 22.4957 11.7479C22.4957 17.6837 17.6837 22.4957 11.7479 22.4957C5.81198 22.4957 1 17.6837 1 11.7479ZM12.8534 16.1697C12.8534 16.7802 12.3584 17.2752 11.7479 17.2752C11.1373 17.2752 10.6423 16.7802 10.6423 16.1697C10.6423 15.5591 11.1373 15.0641 11.7479 15.0641C12.3584 15.0641 12.8534 15.5591 12.8534 16.1697ZM10.3349 9.53667C10.3349 8.7563 10.9675 8.12368 11.7479 8.12368C12.5283 8.12368 13.1609 8.7563 13.1609 9.53666V9.67079C13.1609 10.0811 12.9979 10.4746 12.7077 10.7648L11.1836 12.2889C10.8719 12.6006 10.8719 13.1059 11.1836 13.4176C11.4952 13.7293 12.0005 13.7293 12.3122 13.4176L13.8364 11.8934C14.4259 11.3039 14.757 10.5044 14.757 9.67079V9.53666C14.757 7.87476 13.4098 6.52753 11.7479 6.52753C10.086 6.52753 8.73875 7.87477 8.73875 9.53667V10.0894C8.73875 10.5302 9.09606 10.8875 9.53683 10.8875C9.9776 10.8875 10.3349 10.5302 10.3349 10.0894V9.53667Z" fill="#828BAE"/>
</svg>
