<svg width="24" height="24" viewBox="0 0 24 24" fill="none" xmlns="http://www.w3.org/2000/svg">
<path fill-rule="evenodd" clip-rule="evenodd" d="M8 1.25049H7.96421C7.05997 1.25048 6.33069 1.25047 5.7424 1.30379C5.13605 1.35875 4.60625 1.47504 4.125 1.75289C3.55493 2.08202 3.08154 2.55542 2.75241 3.12549C2.47456 3.60674 2.35826 4.13654 2.3033 4.74289C2.24999 5.33116 2.24999 6.06042 2.25 6.96464V6.9647V7.00049L2.25 17.0005V17.0363C2.24999 17.9405 2.24998 18.6698 2.3033 19.2581C2.35826 19.8644 2.47455 20.3942 2.7524 20.8755C3.08154 21.4456 3.55493 21.919 4.125 22.2481C4.60625 22.5259 5.13605 22.6422 5.7424 22.6972C6.33069 22.7505 7.05995 22.7505 7.96418 22.7505H8H8.03582C8.94005 22.7505 9.66932 22.7505 10.2576 22.6972C10.8639 22.6422 11.3937 22.5259 11.875 22.2481C12.4451 21.919 12.9185 21.4456 13.2476 20.8755C13.5254 20.3942 13.6417 19.8644 13.6967 19.2581C13.75 18.6698 13.75 17.9405 13.75 17.0363V17.0005V16.0005C13.75 15.5863 13.4142 15.2505 13 15.2505C12.5858 15.2505 12.25 15.5863 12.25 16.0005V17.0005C12.25 17.9489 12.2493 18.6101 12.2028 19.1227C12.1573 19.625 12.0726 19.9106 11.9486 20.1255C11.7511 20.4675 11.467 20.7516 11.125 20.949C10.9101 21.0731 10.6245 21.1578 10.1222 21.2033C9.60959 21.2498 8.94842 21.2505 8 21.2505C7.05158 21.2505 6.39041 21.2498 5.87779 21.2033C5.37549 21.1578 5.0899 21.0731 4.875 20.949C4.53296 20.7516 4.24892 20.4675 4.05144 20.1255C3.92737 19.9106 3.84271 19.625 3.79718 19.1227C3.75072 18.6101 3.75 17.9489 3.75 17.0005L3.75 7.00049C3.75 6.05207 3.75072 5.3909 3.79718 4.87828C3.84271 4.37597 3.92737 4.09039 4.05145 3.87549C4.24892 3.53345 4.53296 3.24941 4.875 3.05193C5.0899 2.92786 5.37549 2.84319 5.87779 2.79767C6.39041 2.75121 7.05158 2.75049 8 2.75049C8.94842 2.75049 9.60959 2.75121 10.1222 2.79767C10.6245 2.84319 10.9101 2.92786 11.125 3.05193C11.467 3.24941 11.7511 3.53345 11.9486 3.87549C12.0726 4.09039 12.1573 4.37597 12.2028 4.87828C12.2493 5.3909 12.25 6.05207 12.25 7.00049V8.00049C12.25 8.4147 12.5858 8.75049 13 8.75049C13.4142 8.75049 13.75 8.4147 13.75 8.00049V7.00049V6.96472C13.75 6.06047 13.75 5.33118 13.6967 4.74289C13.6417 4.13654 13.5254 3.60674 13.2476 3.12549C12.9185 2.55542 12.4451 2.08203 11.875 1.75289C11.3938 1.47504 10.8639 1.35875 10.2576 1.30379C9.66931 1.25047 8.94003 1.25048 8.03579 1.25049L8 1.25049ZM17.5303 7.46967C17.2374 7.17678 16.7626 7.17678 16.4697 7.46967C16.1768 7.76256 16.1768 8.23744 16.4697 8.53033L19.1893 11.25L8 11.25C7.58579 11.25 7.25 11.5858 7.25 12C7.25 12.4142 7.58579 12.75 8 12.75L19.1893 12.75L16.4697 15.4697C16.1768 15.7626 16.1768 16.2374 16.4697 16.5303C16.7626 16.8232 17.2374 16.8232 17.5303 16.5303L21.5303 12.5303C21.8232 12.2374 21.8232 11.7626 21.5303 11.4697L17.5303 7.46967Z" fill="current"/>
</svg>
