<svg width="17" height="17" viewBox="0 0 17 17" fill="none" xmlns="http://www.w3.org/2000/svg">
<path fill-rule="evenodd" clip-rule="evenodd" d="M8.5 0.25L8.45109 0.25C6.84883 0.249988 5.57947 0.249978 4.57525 0.36868C3.54428 0.490545 2.69558 0.746383 1.98663 1.3282C1.74612 1.52558 1.52558 1.74612 1.3282 1.98663C0.746383 2.69558 0.490545 3.54428 0.36868 4.57525C0.249978 5.57947 0.249988 6.84882 0.25 8.45109L0.25 8.5L0.25 8.54891C0.249988 10.1512 0.249978 11.4205 0.36868 12.4248C0.490545 13.4557 0.746383 14.3044 1.3282 15.0134C1.52558 15.2539 1.74612 15.4744 1.98663 15.6718C2.69558 16.2536 3.54428 16.5095 4.57525 16.6313C5.57945 16.75 6.84877 16.75 8.45099 16.75H8.45109H8.5H8.54891H8.54901C10.1512 16.75 11.4206 16.75 12.4248 16.6313C13.4557 16.5095 14.3044 16.2536 15.0134 15.6718C15.2539 15.4744 15.4744 15.2539 15.6718 15.0134C16.2536 14.3044 16.5095 13.4557 16.6313 12.4248C16.75 11.4206 16.75 10.1512 16.75 8.54901V8.54891V8.5V7.66667C16.75 7.25245 16.4142 6.91667 16 6.91667C15.5858 6.91667 15.25 7.25245 15.25 7.66667V8.5C15.25 10.1621 15.2488 11.3428 15.1417 12.2487C15.0366 13.138 14.8384 13.6644 14.5123 14.0618C14.3772 14.2263 14.2263 14.3772 14.0618 14.5123C13.6644 14.8384 13.138 15.0366 12.2487 15.1417C11.3428 15.2488 10.1621 15.25 8.5 15.25C6.83789 15.25 5.65724 15.2488 4.75133 15.1417C3.86197 15.0366 3.33563 14.8384 2.93822 14.5123C2.77366 14.3772 2.62277 14.2263 2.48772 14.0618C2.16158 13.6644 1.96344 13.138 1.85831 12.2487C1.75123 11.3428 1.75 10.1621 1.75 8.5C1.75 6.83789 1.75123 5.65724 1.85831 4.75133C1.96344 3.86197 2.16158 3.33563 2.48772 2.93822C2.62277 2.77366 2.77366 2.62277 2.93822 2.48772C3.33563 2.16158 3.86197 1.96344 4.75133 1.85831C5.65724 1.75123 6.83789 1.75 8.5 1.75H11.8333C12.2475 1.75 12.5833 1.41421 12.5833 1C12.5833 0.585787 12.2475 0.25 11.8333 0.25H8.5ZM16.5303 3.197C16.8232 2.9041 16.8232 2.42923 16.5303 2.13634C16.2374 1.84344 15.7626 1.84344 15.4697 2.13634L8.5 9.10601L6.53033 7.13634C6.23744 6.84344 5.76256 6.84344 5.46967 7.13634C5.17678 7.42923 5.17678 7.9041 5.46967 8.197L7.96967 10.697C8.11032 10.8376 8.30109 10.9167 8.5 10.9167C8.69891 10.9167 8.88968 10.8376 9.03033 10.697L16.5303 3.197Z" fill="white"/>
</svg>
