<svg width="16" height="18" viewBox="0 0 16 18" fill="none" xmlns="http://www.w3.org/2000/svg">
<path fill-rule="evenodd" clip-rule="evenodd" d="M5.54315 1.23445C5.54315 0.85741 5.23749 0.551758 4.86045 0.551758C4.48341 0.551758 4.17776 0.85741 4.17776 1.23445V2.11781C3.98188 2.13786 3.80382 2.16732 3.63507 2.21056C2.10603 2.60245 0.912043 3.79643 0.520162 5.32547C0.384477 5.85489 0.384594 6.47601 0.384779 7.45117L0.384793 7.56202V9.58481L0.384793 9.62934C0.384782 11.0878 0.384773 12.2432 0.492822 13.1573C0.60375 14.0958 0.836628 14.8683 1.36623 15.5136C1.5459 15.7326 1.74665 15.9333 1.96557 16.113C2.6109 16.6426 3.38343 16.8755 4.32188 16.9864C5.23596 17.0944 6.39138 17.0944 7.84981 17.0944H7.84983H7.84985H7.84987H7.89441H7.93895H7.93897H7.93898H7.939C9.39744 17.0944 10.5529 17.0944 11.4669 16.9864C12.4054 16.8755 13.1779 16.6426 13.8232 16.113C14.0422 15.9333 14.2429 15.7326 14.4226 15.5136C14.9522 14.8683 15.1851 14.0958 15.296 13.1573C15.404 12.2432 15.404 11.0878 15.404 9.62935V9.58481V9.54027C15.404 8.08181 15.404 6.92637 15.296 6.01228C15.1851 5.07383 14.9522 4.3013 14.4226 3.65598C14.2429 3.43705 14.0422 3.2363 13.8232 3.05663C13.2114 2.55448 12.4851 2.31909 11.6115 2.20148V1.23445C11.6115 0.85741 11.3059 0.551758 10.9288 0.551758C10.5518 0.551758 10.2461 0.85741 10.2461 1.23445V2.09838C9.57687 2.07518 8.81223 2.07519 7.93893 2.0752H7.93893L7.89441 2.0752H5.87162L5.76077 2.07518L5.54315 2.0752V1.23445ZM10.2461 3.51009V3.4645C9.60055 3.44101 8.83155 3.44058 7.89441 3.44058H5.87162C5.75491 3.44058 5.64564 3.44064 5.54315 3.44084V3.51009C5.54315 3.88713 5.23749 4.19278 4.86045 4.19278C4.48341 4.19278 4.17776 3.88713 4.17776 3.51009V3.49249C4.10406 3.50355 4.03744 3.51696 3.97405 3.5332C2.92786 3.80133 2.11093 4.61827 1.8428 5.66446C1.75557 6.00482 1.75018 6.43844 1.75018 7.56202V9.58481C1.75018 11.0978 1.75129 12.1725 1.84877 12.9971C1.94446 13.8066 2.12482 14.2857 2.42169 14.6475C2.54462 14.7972 2.68197 14.9346 2.83176 15.0575C3.1935 15.3544 3.67261 15.5348 4.48216 15.6305C5.30677 15.7279 6.38146 15.729 7.89441 15.729C9.40736 15.729 10.482 15.7279 11.3067 15.6305C12.1162 15.5348 12.5953 15.3544 12.9571 15.0575C13.1068 14.9346 13.2442 14.7972 13.3671 14.6475C13.664 14.2857 13.8444 13.8066 13.94 12.9971C14.0375 12.1724 14.0386 11.0978 14.0386 9.58481C14.0386 8.07186 14.0375 6.99717 13.94 6.17256C13.8444 5.36302 13.664 4.88391 13.3671 4.52217C13.2442 4.37237 13.1068 4.23502 12.9571 4.11209C12.6426 3.85405 12.2395 3.68404 11.6079 3.58114C11.5723 3.92479 11.2819 4.19278 10.9288 4.19278C10.5518 4.19278 10.2461 3.88713 10.2461 3.51009ZM4.10069 5.86426C3.72365 5.86426 3.418 6.16991 3.418 6.54695C3.418 6.92399 3.72365 7.22964 4.10069 7.22964H11.6862C12.0632 7.22964 12.3688 6.92399 12.3688 6.54695C12.3688 6.16991 12.0632 5.86426 11.6862 5.86426H4.10069Z" fill="#081972"/>
</svg>
