<svg width="22" height="18" viewBox="0 0 22 18" fill="none" xmlns="http://www.w3.org/2000/svg">
  <path fill-rule="evenodd" clip-rule="evenodd" d="M7 0.250001H6.94513C5.57754 0.24998 4.47522 0.249963 3.60825 0.366524C2.70814 0.48754 1.95027 0.746434 1.34835 1.34835C0.746434 1.95027 0.48754 2.70814 0.366524 3.60825C0.249963 4.47522 0.24998 5.57754 0.250001 6.94513V7V15C0.250001 15.2766 0.402239 15.5307 0.646107 15.6613C0.889975 15.7918 1.18588 15.7775 1.41603 15.624L2.90448 14.6317C3.69111 14.1073 3.96189 13.9357 4.25631 13.8465C4.55074 13.7574 4.87124 13.75 5.81665 13.75H6C6.41421 13.75 6.75 13.4142 6.75 13C6.75 12.5858 6.41421 12.25 6 12.25H5.81665L5.71269 12.25C4.91116 12.2497 4.35476 12.2495 3.82164 12.4109C3.28852 12.5723 2.82567 12.8811 2.15893 13.326L2.07243 13.3837L1.75 13.5986V7C1.75 5.56459 1.75159 4.56347 1.85315 3.80812C1.9518 3.07435 2.13225 2.68577 2.40901 2.40901C2.68577 2.13225 3.07435 1.9518 3.80812 1.85315C4.56347 1.75159 5.56458 1.75 7 1.75H12C12.9484 1.75 13.6096 1.75072 14.1222 1.79718C14.6245 1.84271 14.9101 1.92737 15.125 2.05144C15.467 2.24892 15.7511 2.53296 15.9486 2.875C16.0726 3.0899 16.1573 3.37549 16.2028 3.87779C16.2359 4.24305 16.2458 4.68373 16.2488 5.25H13L12.948 5.25C12.0495 5.24997 11.3003 5.24995 10.7055 5.32991C10.0777 5.41432 9.51093 5.59999 9.05546 6.05546C8.59999 6.51093 8.41432 7.07773 8.32991 7.70552C8.24995 8.3003 8.24997 9.04952 8.25 9.948L8.25 10V11L8.25 11.052C8.24997 11.9505 8.24995 12.6997 8.32991 13.2945C8.41432 13.9223 8.59999 14.4891 9.05546 14.9445C9.51093 15.4 10.0777 15.5857 10.7055 15.6701C11.3003 15.7501 12.0495 15.75 12.948 15.75H12.948L13 15.75H17.7729L20.584 17.624C20.8141 17.7775 21.11 17.7918 21.3539 17.6613C21.5978 17.5307 21.75 17.2766 21.75 17V10L21.75 9.94801V9.94798C21.75 9.04951 21.7501 8.3003 21.6701 7.70552C21.5857 7.07773 21.4 6.51093 20.9445 6.05546C20.4891 5.59999 19.9223 5.41432 19.2945 5.32991C18.8607 5.2716 18.3449 5.25582 17.7489 5.25157C17.7459 4.66633 17.7352 4.16755 17.6967 3.7424C17.6417 3.13605 17.5254 2.60625 17.2476 2.125C16.9185 1.55493 16.4451 1.08154 15.875 0.752406C15.3938 0.474555 14.8639 0.358258 14.2576 0.303303C13.6693 0.249984 12.94 0.249991 12.0358 0.250001H12H7ZM17 6.75H13C12.036 6.75 11.3884 6.75159 10.9054 6.81654C10.4439 6.87858 10.2464 6.9858 10.1161 7.11612C9.9858 7.24643 9.87858 7.44393 9.81654 7.90539C9.75159 8.38843 9.75 9.03599 9.75 10V11C9.75 11.964 9.75159 12.6116 9.81654 13.0946C9.87858 13.5561 9.9858 13.7536 10.1161 13.8839C10.2464 14.0142 10.4439 14.1214 10.9054 14.1835C11.3884 14.2484 12.036 14.25 13 14.25H18C18.1481 14.25 18.2928 14.2938 18.416 14.376L20.25 15.5986V10C20.25 9.03599 20.2484 8.38843 20.1835 7.90539C20.1214 7.44393 20.0142 7.24643 19.8839 7.11612C19.7536 6.9858 19.5561 6.87858 19.0946 6.81654C18.6116 6.75159 17.964 6.75 17 6.75Z" fill="#FFF"/>
</svg>
