<svg width="10" height="11" viewBox="0 0 10 11" fill="auto" xmlns="http://www.w3.org/2000/svg">
<path fill-rule="evenodd" clip-rule="evenodd" d="M0.46967 0.96967C0.762563 0.676777 1.23744 0.676777 1.53033 0.96967L5 4.43934L8.46967 0.969671C8.76256 0.676778 9.23744 0.676778 9.53033 0.969672C9.82322 1.26256 9.82322 1.73744 9.53033 2.03033L6.06066 5.5L9.53033 8.96967C9.82322 9.26257 9.82322 9.73744 9.53033 10.0303C9.23744 10.3232 8.76256 10.3232 8.46967 10.0303L5 6.56066L1.53033 10.0303C1.23744 10.3232 0.762561 10.3232 0.469668 10.0303C0.176775 9.73744 0.176775 9.26256 0.469668 8.96967L3.93934 5.5L0.46967 2.03033C0.176777 1.73744 0.176777 1.26256 0.46967 0.96967Z" fill="auto"/>
</svg>
