<svg width="16" height="19" viewBox="0 0 16 19" fill="none" xmlns="http://www.w3.org/2000/svg">
<path fill-rule="evenodd" clip-rule="evenodd" d="M2.08398 8.4569C2.08398 6.39227 2.83717 4.90122 3.92068 3.92027C5.01696 2.92775 6.49755 2.41674 8.00065 2.41675C9.50375 2.41675 10.9843 2.92776 12.0806 3.92028C13.1641 4.90125 13.9173 6.39229 13.9173 8.4569C13.9173 10.8405 12.6435 12.97 11.1725 14.6241C10.5059 15.3738 10.0904 15.833 9.64164 16.1307C9.23974 16.3972 8.78063 16.5501 8.00082 16.5501C7.22102 16.5501 6.7619 16.3973 6.35999 16.1307C5.91125 15.8331 5.49571 15.3738 4.82903 14.6242C3.35792 12.9701 2.08398 10.8406 2.08398 8.4569ZM15.4173 8.4569C15.4173 5.99476 14.5038 4.09073 13.0873 2.80831C11.6836 1.53744 9.83089 0.916753 8.00065 0.916748C6.17042 0.916743 4.31767 1.53743 2.91395 2.80829C1.49746 4.09071 0.583984 5.99475 0.583984 8.4569C0.583984 11.374 2.13189 13.8486 3.70817 15.621L3.7558 15.6746C4.36077 16.3551 4.90172 16.9635 5.53095 17.3808C6.22347 17.8401 6.98496 18.0501 8.00085 18.0501C9.01675 18.0501 9.77823 17.84 10.4707 17.3807C11.0999 16.9634 11.6409 16.3549 12.2458 15.6745L12.2934 15.6209C13.8696 13.8485 15.4173 11.3739 15.4173 8.4569ZM6.25065 8.33344C6.25065 7.36694 7.03415 6.58344 8.00065 6.58344C8.96715 6.58344 9.75065 7.36694 9.75065 8.33344C9.75065 9.29994 8.96715 10.0834 8.00065 10.0834C7.03415 10.0834 6.25065 9.29994 6.25065 8.33344ZM8.00065 5.08344C6.20573 5.08344 4.75065 6.53851 4.75065 8.33344C4.75065 10.1284 6.20573 11.5834 8.00065 11.5834C9.79558 11.5834 11.2507 10.1284 11.2507 8.33344C11.2507 6.53851 9.79558 5.08344 8.00065 5.08344Z" fill="#081972"/>
</svg>
