<svg width="20" height="16" viewBox="0 0 20 16" fill="none" xmlns="http://www.w3.org/2000/svg">
<path fill-rule="evenodd" clip-rule="evenodd" d="M8.33268 0.583252L8.29589 0.583252C7.08092 0.583245 6.11814 0.583239 5.34511 0.653301C4.55399 0.725003 3.88829 0.874794 3.29102 1.21963C2.56892 1.63653 1.9693 2.23616 1.5524 2.95825C1.20756 3.55553 1.05777 4.22123 0.986065 5.01235C0.916003 5.78537 0.916009 6.74815 0.916016 7.96313L0.916016 7.99992L0.916016 8.03671C0.916009 9.25168 0.916003 10.2145 0.986065 10.9875C1.05777 11.7786 1.20756 12.4443 1.5524 13.0416C1.9693 13.7637 2.56892 14.3633 3.29102 14.7802C3.88829 15.125 4.55399 15.2748 5.34511 15.3465C6.11814 15.4166 7.08093 15.4166 8.29592 15.4166H8.33269H11.666H11.7028C12.9178 15.4166 13.8806 15.4166 14.6536 15.3465C15.4447 15.2748 16.1104 15.125 16.7077 14.7802C17.4298 14.3633 18.0294 13.7637 18.4463 13.0416C18.7911 12.4443 18.9409 11.7786 19.0126 10.9875C19.0827 10.2145 19.0827 9.2517 19.0827 8.03674V7.99992V7.9631C19.0827 6.74814 19.0827 5.78537 19.0126 5.01235C18.9409 4.22123 18.7911 3.55553 18.4463 2.95825C18.0294 2.23616 17.4298 1.63653 16.7077 1.21963C16.1104 0.874794 15.4447 0.725003 14.6536 0.653301C13.8806 0.583239 12.9178 0.583245 11.7028 0.583252L11.666 0.583252H8.33268ZM4.04102 2.51867C4.37194 2.32761 4.79342 2.20945 5.48051 2.14718C6.1779 2.08397 7.07273 2.08325 8.33268 2.08325H11.666C12.926 2.08325 13.8208 2.08397 14.5182 2.14718C15.2053 2.20945 15.6268 2.32761 15.9577 2.51867C16.4517 2.80392 16.862 3.21419 17.1473 3.70825C17.3383 4.03918 17.4565 4.46066 17.5188 5.14774C17.582 5.84514 17.5827 6.73996 17.5827 7.99992C17.5827 9.25988 17.582 10.1547 17.5188 10.8521C17.4565 11.5392 17.3383 11.9607 17.1473 12.2916C16.862 12.7856 16.4517 13.1959 15.9577 13.4812C15.6268 13.6722 15.2053 13.7904 14.5182 13.8527C13.8208 13.9159 12.926 13.9166 11.666 13.9166H8.33269C7.07273 13.9166 6.1779 13.9159 5.48051 13.8527C4.79342 13.7904 4.37194 13.6722 4.04102 13.4812C3.54695 13.1959 3.13668 12.7856 2.85143 12.2916C2.66037 11.9607 2.54221 11.5392 2.47994 10.8521C2.41673 10.1547 2.41602 9.25988 2.41602 7.99992C2.41602 6.73996 2.41673 5.84514 2.47994 5.14774C2.54221 4.46066 2.66037 4.03918 2.85143 3.70825C3.13668 3.21419 3.54695 2.80392 4.04102 2.51867ZM5.41537 4.04255C5.07073 3.81278 4.60508 3.90591 4.37531 4.25056C4.14555 4.59521 4.23868 5.06086 4.58332 5.29062L9.58332 8.62396C9.83525 8.79191 10.1634 8.79191 10.4154 8.62396L15.4154 5.29062C15.76 5.06086 15.8532 4.59521 15.6234 4.25056C15.3936 3.90591 14.928 3.81278 14.5833 4.04255L9.99935 7.09853L5.41537 4.04255Z" fill="#081972"/>
</svg>
