<svg width="16" height="15" viewBox="0 0 16 15" fill="none" xmlns="http://www.w3.org/2000/svg">
<path fill-rule="evenodd" clip-rule="evenodd" d="M10.709 0C10.2948 0 9.95901 0.335786 9.95901 0.75C9.95901 1.16421 10.2948 1.5 10.709 1.5H12.7344L9.68092 4.5535C8.65273 3.58999 7.27026 3 5.75 3C2.57436 3 0 5.57436 0 8.75C0 11.9256 2.57436 14.5 5.75 14.5C8.92564 14.5 11.5 11.9256 11.5 8.75C11.5 7.63751 11.1841 6.5988 10.637 5.71872L13.7951 2.56066V4.58606C13.7951 5.00027 14.1309 5.33606 14.5451 5.33606C14.9593 5.33606 15.2951 5.00027 15.2951 4.58606V0.75C15.2951 0.335786 14.9593 0 14.5451 0H10.709ZM1.5 8.75C1.5 6.40279 3.40279 4.5 5.75 4.5C8.09721 4.5 10 6.40279 10 8.75C10 11.0972 8.09721 13 5.75 13C3.40279 13 1.5 11.0972 1.5 8.75Z" fill="#081972"/>
</svg>
