<svg width="18" height="18" viewBox="0 0 18 18" fill="none" xmlns="http://www.w3.org/2000/svg">
<path fill-rule="evenodd" clip-rule="evenodd" d="M3.73289 2.25077C3.71419 2.25011 3.69079 2.25 3.60643 2.25L3.57584 2.25013C3.5705 2.25022 3.56226 2.25044 3.54458 2.25122C3.25857 2.26385 2.9464 2.41639 2.7021 2.68569C2.45779 2.95499 2.33629 3.2805 2.35149 3.56638L2.35229 3.58351L2.35246 3.58791C2.51937 5.24676 2.88861 6.74737 3.44032 8.08092L4.25915 7.39635C4.65647 7.06417 4.91762 6.845 5.10651 6.65698C5.28585 6.47847 5.36018 6.36585 5.40314 6.26682C5.43452 6.19448 5.45899 6.11933 5.47621 6.04238C5.49979 5.93703 5.50601 5.80224 5.46614 5.55237C5.42414 5.28918 5.34209 4.95827 5.21648 4.45585L4.92177 3.27699C4.90131 3.19514 4.89552 3.17247 4.89035 3.15449C4.74079 2.63449 4.27364 2.26975 3.73289 2.25077ZM4.11521 9.47184L5.22126 8.54715L5.24487 8.52741L5.24493 8.52736L5.24493 8.52736C5.61229 8.22025 5.92414 7.95955 6.16471 7.7201C6.41999 7.466 6.63367 7.19934 6.77924 6.86376C6.84828 6.70462 6.9021 6.53929 6.93999 6.37001C7.01989 6.01305 7.00416 5.6717 6.9474 5.31601C6.89391 4.9808 6.79531 4.58645 6.67916 4.1219L6.6717 4.09204L6.37698 2.91319L6.37406 2.90151C6.35789 2.8368 6.34533 2.78655 6.33191 2.73988C6.00288 1.59587 4.97514 0.793438 3.78549 0.751693C3.73696 0.74999 3.68519 0.749995 3.61851 0.750001L3.60643 0.750001C3.56666 0.750001 3.53769 0.750061 3.47841 0.752679C2.72523 0.785938 2.05531 1.16616 1.59113 1.67784C1.14404 2.17068 0.836848 2.84164 0.850612 3.5631L0.849705 3.57873C0.84955 3.58906 0.849603 3.60599 0.849727 3.61259L0.850263 3.62844L0.851088 3.64357L0.851928 3.65517L0.852565 3.66266L0.852833 3.66558L0.853323 3.67069L0.853809 3.67568C1.06973 5.8887 1.62291 7.88365 2.49711 9.6235C3.79636 12.2093 5.7913 14.2042 8.37711 15.5035C10.117 16.3777 12.1119 16.9309 14.3249 17.1468L14.3299 17.1473L14.335 17.1478L14.3379 17.148L14.3454 17.1487L14.357 17.1495L14.3722 17.1503L14.388 17.1509C14.3946 17.151 14.4116 17.1511 14.4219 17.1509L14.4375 17.15C15.159 17.1638 15.8299 16.8566 16.3228 16.4095C16.8344 15.9453 17.2147 15.2754 17.2479 14.5222C17.2505 14.4629 17.2506 14.4339 17.2506 14.3942V14.3821C17.2506 14.3154 17.2506 14.2636 17.2489 14.2151C17.2072 13.0255 16.4047 11.9977 15.2607 11.6687C15.2141 11.6553 15.164 11.6428 15.0994 11.6266L15.0993 11.6266L15.0992 11.6266L15.0874 11.6236L13.9086 11.3289L13.8787 11.3214C13.4141 11.2053 13.0198 11.1067 12.6846 11.0532C12.3289 10.9964 11.9876 10.9807 11.6306 11.0606C11.4613 11.0985 11.296 11.1523 11.1368 11.2214C10.8013 11.3669 10.5346 11.5806 10.2805 11.8359C10.041 12.0765 9.78031 12.3884 9.47317 12.7558L9.45345 12.7793L8.52876 13.8854C6.65574 12.8302 5.17042 11.3449 4.11521 9.47184ZM9.91969 14.5603C11.2532 15.112 12.7538 15.4812 14.4127 15.6481L14.4171 15.6483L14.4342 15.6491C14.7201 15.6643 15.0456 15.5428 15.3149 15.2985C15.5842 15.0542 15.7368 14.742 15.7494 14.456C15.7502 14.4383 15.7504 14.4301 15.7505 14.4248L15.7506 14.3942C15.7506 14.3098 15.7505 14.2864 15.7498 14.2677C15.7309 13.727 15.3661 13.2598 14.8461 13.1103C14.8281 13.1051 14.8055 13.0993 14.7236 13.0788L13.5448 12.7841C13.0423 12.6585 12.7114 12.5765 12.4482 12.5345C12.1984 12.4946 12.0636 12.5008 11.9582 12.5244C11.8813 12.5416 11.8061 12.5661 11.7338 12.5975C11.6348 12.6404 11.5221 12.7148 11.3436 12.8941C11.1556 13.083 10.9364 13.3441 10.6043 13.7415L9.91969 14.5603ZM14.5773 17.1215L14.5947 17.1165C14.6098 17.1121 14.6283 17.106 14.6492 17.098C14.6699 17.0901 14.6961 17.079 14.7257 17.0637C14.7376 17.0574 14.7624 17.0433 14.7753 17.0355C14.7895 17.0265 14.8191 17.0063 14.8343 16.9951C14.8511 16.9819 14.8854 16.9525 14.9028 16.9362C14.9218 16.9171 14.9597 16.8745 14.9783 16.8509C14.9979 16.8238 15.0351 16.7642 15.0522 16.7317C15.069 16.6956 15.0974 16.6187 15.1087 16.578C15.118 16.5352 15.129 16.4481 15.1307 16.4041C15.1298 16.3607 15.1208 16.2766 15.113 16.236C15.0898 16.1311 15.048 16.048 15.0088 15.988C14.9974 15.9711 14.9768 15.9433 14.9614 15.9237C15.1205 16.4577 14.7542 17.0105 14.5773 17.1215ZM14.8284 15.7961L14.8125 15.7846C14.7889 15.768 14.7677 15.7551 14.7507 15.7454C14.7335 15.7357 14.7181 15.7278 14.7053 15.7217C14.6925 15.7156 14.6809 15.7105 14.6712 15.7064L14.6683 15.7052C14.7111 15.7263 14.7696 15.7582 14.8284 15.7961ZM0.879092 3.42334C0.990088 3.2464 1.54281 2.88016 2.07679 3.03913C2.05718 3.02377 2.02934 3.0031 2.01246 2.99168C1.95244 2.95254 1.86931 2.91068 1.76438 2.88753C1.72379 2.87975 1.63961 2.87083 1.59625 2.86996C1.55225 2.87163 1.46513 2.88268 1.42232 2.89197C1.3817 2.90327 1.30481 2.93168 1.26867 2.94849C1.23622 2.96564 1.17668 3.00277 1.14955 3.02241C1.12599 3.04104 1.08343 3.07889 1.06435 3.09789C1.04799 3.1153 1.01861 3.14964 1.00548 3.16643C0.994254 3.18162 0.974049 3.21113 0.965009 3.22539C0.957234 3.23825 0.943186 3.26308 0.93687 3.27501C0.921586 3.30453 0.910479 3.33079 0.902577 3.3514C0.894565 3.3723 0.888535 3.39084 0.884052 3.4059L0.879092 3.42334ZM2.20441 3.17208C2.24236 3.23095 2.27434 3.28944 2.29544 3.3323L2.29424 3.32943C2.29013 3.31964 2.28503 3.30808 2.27887 3.29523C2.27275 3.2825 2.2649 3.26707 2.25515 3.24987C2.24551 3.23287 2.23259 3.21163 2.21598 3.18806L2.20441 3.17208ZM9.91715 4.83329C9.91715 4.41908 10.2529 4.08329 10.6672 4.08329C11.5733 4.08329 12.3603 4.64485 12.8814 5.20152C13.1752 5.5154 13.4246 5.86885 13.6041 6.21823C13.7761 6.55287 13.9172 6.94814 13.9172 7.33329C13.9172 7.7475 13.5814 8.08329 13.1672 8.08329C12.7529 8.08329 12.4172 7.7475 12.4172 7.33329C12.4172 7.28653 12.3903 7.13796 12.27 6.90384C12.1573 6.68446 11.99 6.44425 11.7863 6.22656C11.3825 5.79519 10.9653 5.58329 10.6672 5.58329C10.2529 5.58329 9.91715 5.2475 9.91715 4.83329ZM10.6672 1.58329C10.2529 1.58329 9.91715 1.91908 9.91715 2.33329C9.91715 2.7475 10.2529 3.08329 10.6672 3.08329C13.0144 3.08329 14.9172 4.98608 14.9172 7.33329C14.9172 7.7475 15.2529 8.08329 15.6672 8.08329C16.0814 8.08329 16.4172 7.7475 16.4172 7.33329C16.4172 4.15765 13.8428 1.58329 10.6672 1.58329Z" fill="#081972"/>
</svg>
