<!-- Generated by IcoMoon.io -->
<svg version="1.1" xmlns="http://www.w3.org/2000/svg" width="32" height="32" viewBox="0 0 32 32">
<title>google-logo</title>
<path fill="#4285f4" d="M30.080 16.333c0-1.040-0.093-2.040-0.267-3h-13.813v5.68h7.893c-0.347 1.827-1.387 3.373-2.947 4.413v3.693h4.76c2.773-2.56 4.373-6.32 4.373-10.787z"></path>
<path fill="#34a853" d="M16 30.667c3.96 0 7.28-1.307 9.707-3.547l-4.76-3.693c-1.307 0.88-2.973 1.413-4.947 1.413-3.813 0-7.053-2.573-8.213-6.040h-4.88v3.787c2.413 4.787 7.36 8.080 13.093 8.080z"></path>
<path fill="#fbbc05" d="M7.787 18.787c-0.293-0.88-0.467-1.813-0.467-2.787s0.173-1.907 0.467-2.787v-3.787h-4.88c-1 1.973-1.573 4.2-1.573 6.573s0.573 4.6 1.573 6.573l3.8-2.96 1.080-0.827z"></path>
<path fill="#ea4335" d="M16 7.173c2.16 0 4.080 0.747 5.613 2.187l4.2-4.2c-2.547-2.373-5.853-3.827-9.813-3.827-5.733 0-10.68 3.293-13.093 8.093l4.88 3.787c1.16-3.467 4.4-6.040 8.213-6.040z"></path>
</svg>
