<svg width="557" height="151" viewBox="0 0 557 151" fill="none" xmlns="http://www.w3.org/2000/svg">
<g clip-path="url(#clip0_406_31099)">
<path d="M54.8 0.999896C52.8 1.66657 49.8667 3.26656 48.4 4.5999C42.5333 9.93323 42 12.8666 42 40.5999C42 64.3332 42.2667 67.3999 44.6667 71.2666C48.8 78.0666 51.6 78.9999 72.8 79.6666C86.5333 80.1999 92.9333 80.8666 94.4 82.1999C96.4 83.7999 96.6667 87.3999 96.6667 109.8C96.6667 141.533 98 139.667 74.6667 139.667C53.3333 139.667 52.6667 139.267 52.6667 125C52.6667 104.067 47.0667 98.0666 26.4 97.2666C10.1333 96.4666 10 96.4666 10 74.9999C10 54.4666 10.8 52.9999 22.1333 52.9999H30V47.6666V42.3332H21.7333C12.2667 42.3332 6.4 44.9999 2.4 51.2666C0.4 54.3332 0 57.7999 0 74.9999C0 93.7999 0.133333 95.2666 3.06667 99.3999C7.86667 105.933 12.2667 107.667 25.2 107.667C40.6667 107.667 42 109.133 42 124.867C42 145.533 48.1333 150.333 74.6667 150.333C93.3333 150.333 100.133 148.067 104.667 140.733C107.067 136.733 107.333 134.067 107.333 109.667C107.333 85.6666 107.067 82.5999 104.667 78.7332C100.533 71.9332 97.7333 70.9999 76.2667 70.3332C58.6667 69.7999 56.2667 69.3999 54.5333 67.1332C53.0667 64.9999 52.6667 58.9999 52.6667 39.5332C52.6667 8.59989 51.3333 10.3332 74.6667 10.3332C96 10.3332 96.1333 10.3332 96.9333 26.7332C98 47.2666 102.533 51.9332 123.067 52.7332C139.2 53.5332 139.333 53.6666 139.333 74.9999C139.333 95.5332 138.533 96.9999 127.2 96.9999H119.333V102.333V107.667H127.333C136.8 107.667 141.867 105.4 146.267 99.3999C149.2 95.2666 149.333 93.7999 149.333 74.9999C149.333 56.1999 149.2 54.7332 146.267 50.5999C141.6 44.0666 136.933 42.3332 124.667 42.3332C114.933 42.3332 113.6 41.9332 110.667 38.9999C107.6 36.0666 107.333 34.7332 107.333 24.7332C107.333 16.0666 106.8 12.7332 104.667 9.39989C99.8667 1.39989 96.8 0.333229 76.6667 0.0665625C66.8 -0.0667708 56.9333 0.333229 54.8 0.999896Z" fill="#4D84E7"/>
<path d="M180.666 75V113H189.333H197.866L198.266 94.7333L198.666 76.4667L206.133 94.3333L213.733 112.333H221.466H229.333L236.666 94.7333C240.666 85 244.399 77 245.066 77C245.599 77 245.999 85.1333 245.999 95V113H253.999H261.999V75V36.8667L253.866 37.2667L245.599 37.6667L234.399 63C228.133 76.8667 222.666 88.7333 222.133 89.2667C221.599 89.9333 215.866 78.3333 209.333 63.6667L197.333 37H189.066H180.666V75Z" fill="#4D84E7"/>
<path d="M382.001 49.6667V62.4667L378.134 59.5333C375.201 57.4 372.401 56.6 366.668 56.7333C348.268 56.8667 336.134 73.9333 340.668 93.1333C344.668 109.667 363.201 119.133 377.068 111.667C381.201 109.4 382.001 109.4 382.001 111C382.001 112.6 383.868 113 390.668 113H399.334V75V37H390.668H382.001V49.6667ZM378.801 74.4667C384.801 80.0667 384.001 93.1333 377.601 97.6667C371.201 102.067 360.668 99.2667 357.334 92.3333C354.801 86.8667 354.801 83.2667 357.334 78.3333C361.468 70.2 372.268 68.3333 378.801 74.4667Z" fill="#4D84E7"/>
<path d="M434.533 39.1334C426.533 42.0668 418.666 49.4001 414.399 58.0668C411.333 64.3334 410.666 67.4001 410.666 75.6668C410.799 88.2001 414.133 95.8001 423.599 104.333C442.666 121.533 473.066 115.8 485.599 92.6001C489.066 86.4668 488.933 65.0001 485.599 58.0668C481.999 50.8668 474.533 43.8001 466.799 40.2001C458.799 36.4668 443.466 35.9334 434.533 39.1334ZM459.333 54.6001C474.666 62.3334 475.599 87.1334 460.799 95.4001C445.466 104.067 427.999 93.0001 428.133 75.0001C428.266 66.8668 431.199 61.0001 436.933 56.6001C444.399 51.0001 450.933 50.4668 459.333 54.6001Z" fill="#4D84E7"/>
<path d="M297.334 56.8665C287.2 59.3998 278.267 67.2665 275.334 76.4665C272.934 83.5332 274.4 94.8665 278.534 101.133C287.334 114.333 311.867 118.733 323.6 109L326.667 106.467L322.667 102.333C318.534 98.3332 318.4 98.3332 311.734 99.7998C308 100.733 303.6 101 301.734 100.6C297.334 99.3998 291.334 94.5998 291.334 92.1998C291.334 90.7332 294.934 90.3332 311.334 90.3332H331.334V85.9332C331.334 79.3998 328.8 71.5332 325.067 66.5998C319.467 59.1332 306.534 54.5998 297.334 56.8665ZM311.867 73.1332C318.4 78.1998 316.534 79.6665 303.334 79.6665C296.8 79.6665 291.334 79.1332 291.334 78.5998C291.334 76.8665 294.4 73.5332 297.334 71.9332C301.6 69.5332 308 70.0665 311.867 73.1332Z" fill="#4D84E7"/>
<path d="M500.666 85V113H508.533H516.399L516.933 96.2L517.333 79.4L522.266 74.8667C528.133 69.5333 533.599 68.8667 537.466 73.1333C539.599 75.5333 539.999 78.6 540.399 94.4667L540.933 113H548.933H556.933L556.399 92.6C555.999 76.2 555.466 71.4 553.466 67.4C549.999 60.3333 543.999 57 535.066 57C528.666 57 527.199 57.5333 522.266 61.8L516.666 66.6V61.8V57H508.666H500.666V85Z" fill="#4D84E7"/>
</g>
<defs>
<clipPath id="clip0_406_31099">
<rect width="557" height="151" fill="white"/>
</clipPath>
</defs>
</svg>
