<svg width="13" height="12" viewBox="0 0 13 12" fill="none" xmlns="http://www.w3.org/2000/svg">
<path fill-rule="evenodd" clip-rule="evenodd" d="M6.49985 0.177979C6.95389 0.177979 7.32197 0.546052 7.32197 1.00009V5.17798H11.4998C11.9539 5.17798 12.322 5.54605 12.322 6.00009C12.322 6.45414 11.9539 6.82221 11.4998 6.82221H7.32197V11.0001C7.32197 11.4541 6.95389 11.8222 6.49985 11.8222C6.04581 11.8222 5.67773 11.4541 5.67773 11.0001V6.82221H1.49985C1.04581 6.82221 0.677734 6.45414 0.677734 6.00009C0.677734 5.54605 1.04581 5.17798 1.49985 5.17798H5.67773V1.00009C5.67773 0.546052 6.04581 0.177979 6.49985 0.177979Z" fill="auto"/>
</svg>
