<svg width="24" height="24" viewBox="0 0 24 24" fill="none" xmlns="http://www.w3.org/2000/svg">
<path fill-rule="evenodd" clip-rule="evenodd" d="M11.9516 1.375H12H12.0484C14.3644 1.37499 16.1665 1.37498 17.5696 1.56363C19.0005 1.75601 20.1098 2.15481 20.9775 3.02252C21.8452 3.89024 22.244 4.99949 22.4364 6.43036C22.625 7.8335 22.625 9.63558 22.625 11.9516V12V12.0484C22.625 14.3644 22.625 16.1665 22.4364 17.5696C22.244 19.0005 21.8452 20.1098 20.9775 20.9775C20.1098 21.8452 19.0005 22.244 17.5696 22.4364C16.1665 22.625 14.3644 22.625 12.0484 22.625H12H11.9516C9.63558 22.625 7.8335 22.625 6.43036 22.4364C4.99949 22.244 3.89024 21.8452 3.02252 20.9775C2.15481 20.1098 1.75601 19.0005 1.56363 17.5696C1.37498 16.1665 1.37499 14.3644 1.375 12.0484V12V11.9516C1.37499 9.63558 1.37498 7.83351 1.56363 6.43036C1.75601 4.99949 2.15481 3.89024 3.02252 3.02252C3.89024 2.15481 4.99949 1.75601 6.43036 1.56363C7.83351 1.37498 9.63558 1.37499 11.9516 1.375ZM2.625 12C2.625 14.3747 2.62633 16.0928 2.80249 17.4031C2.97623 18.6953 3.30966 19.4968 3.90641 20.0936C4.50316 20.6903 5.30466 21.0238 6.59692 21.1975C7.90716 21.3737 9.62531 21.375 12 21.375C14.3747 21.375 16.0928 21.3737 17.4031 21.1975C18.6953 21.0238 19.4968 20.6903 20.0936 20.0936C20.6903 19.4968 21.0238 18.6953 21.1975 17.4031C21.3737 16.0928 21.375 14.3747 21.375 12C21.375 9.62531 21.3737 7.90716 21.1975 6.59692C21.0238 5.30466 20.6903 4.50316 20.0936 3.90641C19.4968 3.30966 18.6953 2.97623 17.4031 2.80249C16.0928 2.62633 14.3747 2.625 12 2.625C9.62531 2.625 7.90716 2.62633 6.59692 2.80249C5.30466 2.97623 4.50316 3.30966 3.90641 3.90641C3.30966 4.50316 2.97623 5.30466 2.80249 6.59692C2.62633 7.90716 2.625 9.62531 2.625 12ZM10.6666 13.625C9.53904 13.625 8.62496 14.539 8.62496 15.6666C8.62496 16.0578 8.94209 16.375 9.33329 16.375H14.6666C15.0578 16.375 15.375 16.0578 15.375 15.6666C15.375 14.539 14.4609 13.625 13.3333 13.625H10.6666ZM16.625 15.6666C16.625 16.7482 15.7482 17.625 14.6666 17.625H9.33329C8.25174 17.625 7.37496 16.7482 7.37496 15.6666C7.37496 13.8487 8.84869 12.375 10.6666 12.375H13.3333C15.1512 12.375 16.625 13.8487 16.625 15.6666ZM10.625 7.99999C10.625 7.2406 11.2406 6.62499 12 6.62499C12.7594 6.62499 13.375 7.2406 13.375 7.99999C13.375 8.75938 12.7594 9.37499 12 9.37499C11.2406 9.37499 10.625 8.75938 10.625 7.99999ZM12 5.37499C10.5502 5.37499 9.37498 6.55024 9.37498 7.99999C9.37498 9.44974 10.5502 10.625 12 10.625C13.4497 10.625 14.625 9.44974 14.625 7.99999C14.625 6.55024 13.4497 5.37499 12 5.37499Z" fill="#4D84E7"/>
</svg>
