<svg width="175" height="54" viewBox="0 0 175 54" fill="none" xmlns="http://www.w3.org/2000/svg">
<g clip-path="url(#clip0_581_113997)">
<mask id="mask0_581_113997" style="mask-type:luminance" maskUnits="userSpaceOnUse" x="0" y="0" width="175" height="54">
<path d="M175 0H0V54H175V0Z" fill="white"/>
</mask>
<g mask="url(#mask0_581_113997)">
<path d="M17.2172 0.357559C16.5889 0.595973 15.6673 1.16815 15.2065 1.64498C13.3632 3.55226 13.1957 4.60128 13.1957 14.5191C13.1957 23.0066 13.2795 24.1033 14.0335 25.486C15.3321 27.9178 16.2119 28.2516 22.8725 28.49C27.1873 28.6807 29.1981 28.9192 29.6589 29.396C30.2873 29.9682 30.371 31.2556 30.371 39.2662C30.371 50.6144 30.7899 49.9471 23.459 49.9471C16.7564 49.9471 16.547 49.8041 16.547 44.702C16.547 37.216 14.7876 35.0702 8.29443 34.7841C3.18371 34.498 3.14183 34.498 3.14183 26.8211C3.14183 19.4781 3.39318 18.9536 6.95391 18.9536H9.42549V17.0463V15.139H6.82824C3.85399 15.139 2.01077 16.0927 0.75404 18.3337C0.125673 19.4304 0 20.6701 0 26.8211C0 33.5443 0.041891 34.0688 0.963496 35.547C2.47158 37.8833 3.85399 38.5034 7.91742 38.5034C12.7768 38.5034 13.1957 39.0277 13.1957 44.6544C13.1957 52.0449 15.1227 53.7614 23.459 53.7614C29.3237 53.7614 31.4601 52.9511 32.8846 50.3283C33.6386 48.8979 33.7222 47.9445 33.7222 39.2186C33.7222 30.6357 33.6386 29.539 32.8846 28.1562C31.5858 25.7244 30.7062 25.3907 23.9617 25.1523C18.4321 24.9615 17.678 24.8185 17.1334 24.0079C16.6727 23.245 16.547 21.0993 16.547 14.1377C16.547 3.07544 16.1281 3.6953 23.459 3.6953C30.1616 3.6953 30.2035 3.6953 30.4548 9.5602C30.7899 16.9033 32.2141 18.5721 38.6656 18.8582C43.7343 19.1443 43.7761 19.192 43.7761 26.8211C43.7761 34.1642 43.5247 34.6887 39.9641 34.6887H37.4924V36.5959V38.5034H40.0059C42.9803 38.5034 44.5722 37.6927 45.9546 35.547C46.8761 34.0688 46.9179 33.5443 46.9179 26.8211C46.9179 20.098 46.8761 19.5734 45.9546 18.0953C44.4883 15.7589 43.022 15.139 39.1683 15.139C36.11 15.139 35.6912 14.996 34.7697 13.947C33.8061 12.898 33.7222 12.4211 33.7222 8.84497C33.7222 5.74565 33.5548 4.55358 32.8846 3.36153C31.3764 0.500603 30.4129 0.119149 24.0874 0.0237844C20.9874 -0.0238977 17.8875 0.119149 17.2172 0.357559Z" fill="#4D84E7"/>
<path d="M56.7617 26.8212V40.4106H59.4847H62.1657L62.2913 33.8781L62.417 27.3457L64.763 33.7351L67.1508 40.172H69.5804H72.0521L74.356 33.8781C75.6127 30.3973 76.7855 27.5364 76.9951 27.5364C77.1626 27.5364 77.2882 30.445 77.2882 33.9735V40.4106H79.8017H82.3152V26.8212V13.1841L79.7599 13.3271L77.1626 13.4702L73.6437 22.5298C71.675 27.4887 69.9574 31.7324 69.7899 31.9232C69.6222 32.1615 67.821 28.0132 65.7684 22.7682L61.9982 13.2318H59.4009H56.7617V26.8212Z" fill="#4D84E7"/>
<path d="M120.018 17.7617V22.3392L118.803 21.2902C117.882 20.5273 117.002 20.2412 115.201 20.2889C109.42 20.3366 105.607 26.4399 107.032 33.3061C108.289 39.2188 114.111 42.604 118.468 39.934C119.767 39.1233 120.018 39.1233 120.018 39.6955C120.018 40.2677 120.605 40.4107 122.741 40.4107H125.464V26.8213V13.2319H122.741H120.018V17.7617ZM119.013 26.6306C120.898 28.6333 120.646 33.3061 118.636 34.9273C116.625 36.5009 113.316 35.4995 112.268 33.02C111.472 31.0651 111.472 29.7776 112.268 28.0134C113.567 25.1048 116.96 24.4372 119.013 26.6306Z" fill="#4D84E7"/>
<path d="M136.522 13.9946C134.009 15.0436 131.537 17.6661 130.196 20.7655C129.233 23.0065 129.023 24.1032 129.023 27.0595C129.065 31.5416 130.113 34.2595 133.087 37.311C139.077 43.462 148.628 41.4118 152.566 33.1151C153.655 30.9217 153.614 23.2449 152.566 20.7655C151.435 18.1906 149.089 15.6635 146.659 14.376C144.146 13.041 139.329 12.8502 136.522 13.9946ZM144.314 19.5257C149.131 22.2913 149.424 31.1601 144.774 34.1164C139.957 37.2159 134.469 33.2582 134.511 26.8211C134.553 23.9125 135.475 21.8145 137.276 20.2409C139.622 18.2383 141.675 18.0476 144.314 19.5257Z" fill="#4D84E7"/>
<path d="M93.4178 20.3365C90.2339 21.2425 87.4273 24.0557 86.5058 27.3458C85.7518 29.8729 86.2124 33.9259 87.5112 36.1669C90.276 40.8874 97.9839 42.461 101.67 38.9803L102.634 38.0744L101.377 36.5961C100.079 35.1657 100.036 35.1657 97.9421 35.6901C96.7689 36.0239 95.3865 36.1194 94.8002 35.9763C93.4178 35.5471 91.5327 33.8305 91.5327 32.9723C91.5327 32.4478 92.6638 32.3047 97.8164 32.3047H104.1V30.7312C104.1 28.3948 103.304 25.5816 102.131 23.8173C100.372 21.1471 96.3083 19.5259 93.4178 20.3365ZM97.9839 26.1537C100.036 27.9656 99.4502 28.4902 95.3029 28.4902C93.2501 28.4902 91.5327 28.2994 91.5327 28.1087C91.5327 27.4888 92.496 26.2968 93.4178 25.7246C94.7582 24.8663 96.7689 25.057 97.9839 26.1537Z" fill="#4D84E7"/>
<path d="M157.301 30.3975V40.4108H159.772H162.244L162.412 34.4028L162.537 28.3949L164.087 26.7737C165.93 24.8664 167.648 24.628 168.863 26.1538C169.533 27.0121 169.659 28.1088 169.784 33.783L169.952 40.4108H172.465H174.979L174.811 33.1154C174.685 27.2505 174.518 25.5339 173.89 24.1035C172.8 21.5763 170.915 20.3843 168.109 20.3843C166.098 20.3843 165.637 20.575 164.087 22.1008L162.328 23.8174V22.1008V20.3843H159.814H157.301V30.3975Z" fill="#4D84E7"/>
</g>
</g>
<defs>
<clipPath id="clip0_581_113997">
<rect width="175" height="54" fill="white"/>
</clipPath>
</defs>
</svg>
