<svg width="175" height="54" viewBox="0 0 175 54" fill="none" xmlns="http://www.w3.org/2000/svg">
<path d="M17.2172 0.357559C16.5889 0.595973 15.6673 1.16815 15.2065 1.64498C13.3632 3.55226 13.1957 4.60128 13.1957 14.5191C13.1957 23.0066 13.2795 24.1033 14.0335 25.486C15.3321 27.9178 16.2119 28.2516 22.8725 28.49C27.1873 28.6807 29.1981 28.9192 29.6589 29.396C30.2873 29.9682 30.371 31.2556 30.371 39.2662C30.371 50.6144 30.7899 49.9471 23.459 49.9471C16.7564 49.9471 16.547 49.8041 16.547 44.702C16.547 37.216 14.7876 35.0702 8.29443 34.7841C3.18371 34.498 3.14183 34.498 3.14183 26.8211C3.14183 19.4781 3.39318 18.9536 6.95391 18.9536H9.42549V17.0463V15.139H6.82824C3.85399 15.139 2.01077 16.0927 0.75404 18.3337C0.125673 19.4304 0 20.6701 0 26.8211C0 33.5443 0.041891 34.0688 0.963496 35.547C2.47158 37.8833 3.85399 38.5034 7.91742 38.5034C12.7768 38.5034 13.1957 39.0277 13.1957 44.6544C13.1957 52.0449 15.1227 53.7614 23.459 53.7614C29.3237 53.7614 31.4601 52.9511 32.8846 50.3283C33.6386 48.8979 33.7222 47.9445 33.7222 39.2186C33.7222 30.6357 33.6386 29.539 32.8846 28.1562C31.5858 25.7244 30.7062 25.3907 23.9617 25.1523C18.4321 24.9615 17.678 24.8185 17.1334 24.0079C16.6727 23.245 16.547 21.0993 16.547 14.1377C16.547 3.07544 16.1281 3.6953 23.459 3.6953C30.1616 3.6953 30.2035 3.6953 30.4548 9.5602C30.7899 16.9033 32.2141 18.5721 38.6656 18.8582C43.7343 19.1443 43.7761 19.192 43.7761 26.8211C43.7761 34.1642 43.5247 34.6887 39.9641 34.6887H37.4924V36.5959V38.5034H40.0059C42.9803 38.5034 44.5722 37.6927 45.9546 35.547C46.8761 34.0688 46.9179 33.5443 46.9179 26.8211C46.9179 20.098 46.8761 19.5734 45.9546 18.0953C44.4883 15.7589 43.022 15.139 39.1683 15.139C36.11 15.139 35.6912 14.996 34.7697 13.947C33.8061 12.898 33.7222 12.4211 33.7222 8.84497C33.7222 5.74565 33.5548 4.55358 32.8846 3.36153C31.3764 0.500603 30.4129 0.119149 24.0874 0.0237844C20.9874 -0.0238977 17.8875 0.119149 17.2172 0.357559Z" fill="#4D84E7"/>
<path d="M56.7617 26.8212V40.4106H59.4847H62.1657L62.2913 33.8781L62.417 27.3457L64.763 33.7351L67.1508 40.172H69.5804H72.0521L74.356 33.8781C75.6127 30.3973 76.7855 27.5364 76.9951 27.5364C77.1626 27.5364 77.2882 30.445 77.2882 33.9735V40.4106H79.8017H82.3152V26.8212V13.1841L79.7599 13.3271L77.1626 13.4702L73.6437 22.5298C71.675 27.4887 69.9574 31.7324 69.7899 31.9232C69.6222 32.1615 67.821 28.0132 65.7684 22.7682L61.9982 13.2318H59.4009H56.7617V26.8212Z" fill="#4D84E7"/>
<path d="M120.018 17.7615V22.339L118.803 21.29C117.882 20.5271 117.002 20.241 115.201 20.2886C109.42 20.3363 105.607 26.4396 107.032 33.3058C108.289 39.2186 114.111 42.6038 118.468 39.9338C119.767 39.1231 120.018 39.1231 120.018 39.6953C120.018 40.2675 120.605 40.4105 122.741 40.4105H125.464V26.8211V13.2317H122.741H120.018V17.7615ZM119.013 26.6304C120.898 28.633 120.646 33.3059 118.636 34.9271C116.625 36.5007 113.316 35.4993 112.268 33.0198C111.472 31.0648 111.472 29.7774 112.268 28.0131C113.567 25.1045 116.96 24.437 119.013 26.6304Z" fill="#4D84E7"/>
<path d="M136.499 13.7514C133.985 14.8004 131.513 17.4229 130.173 20.5223C129.21 22.7633 129 23.86 129 26.8163C129.042 31.2984 130.089 34.0163 133.063 37.0678C139.054 43.2188 148.605 41.1686 152.543 32.8719C153.632 30.6786 153.59 23.0017 152.543 20.5223C151.412 17.9475 149.066 15.4203 146.636 14.1329C144.123 12.7978 139.305 12.607 136.499 13.7514ZM144.29 19.2825C149.108 22.0481 149.401 30.917 144.751 33.8733C139.934 36.9727 134.446 33.015 134.488 26.5779C134.53 23.6693 135.451 21.5713 137.253 19.9978C139.598 17.9951 141.651 17.8044 144.29 19.2825Z" fill="#4D84E7"/>
<path d="M93.4178 20.3363C90.2339 21.2422 87.4273 24.0555 86.5058 27.3455C85.7518 29.8727 86.2124 33.9257 87.5112 36.1667C90.276 40.8872 97.9839 42.4607 101.67 38.98L102.634 38.0742L101.377 36.5958C100.079 35.1654 100.036 35.1654 97.9421 35.6899C96.7689 36.0236 95.3865 36.1191 94.8002 35.9761C93.4178 35.5469 91.5327 33.8303 91.5327 32.972C91.5327 32.4475 92.6638 32.3045 97.8164 32.3045H104.1V30.731C104.1 28.3945 103.304 25.5813 102.131 23.817C100.372 21.1469 96.3083 19.5257 93.4178 20.3363ZM97.9839 26.1535C100.036 27.9654 99.4502 28.4899 95.3029 28.4899C93.2501 28.4899 91.5327 28.2992 91.5327 28.1084C91.5327 27.4886 92.496 26.2965 93.4178 25.7244C94.7582 24.8661 96.7689 25.0568 97.9839 26.1535Z" fill="#4D84E7"/>
<path d="M157.301 30.3973V40.4105H159.772H162.244L162.412 34.4026L162.537 28.3946L164.087 26.7734C165.93 24.8661 167.648 24.6278 168.863 26.1536C169.533 27.0118 169.659 28.1085 169.784 33.7827L169.952 40.4105H172.465H174.979L174.811 33.1152C174.685 27.2503 174.518 25.5337 173.89 24.1032C172.8 21.5761 170.915 20.384 168.109 20.384C166.098 20.384 165.637 20.5747 164.087 22.1006L162.328 23.8171V22.1006V20.384H159.814H157.301V30.3973Z" fill="#4D84E7"/>
</svg>
