<svg width="28" height="28" viewBox="0 0 28 28" fill="none" xmlns="http://www.w3.org/2000/svg">
<path fill-rule="evenodd" clip-rule="evenodd" d="M25.6673 13.9999C25.6673 20.4432 20.444 25.6666 14.0007 25.6666C7.55733 25.6666 2.33398 20.4432 2.33398 13.9999C2.33398 7.5566 7.55733 2.33325 14.0007 2.33325C20.444 2.33325 25.6673 7.5566 25.6673 13.9999ZM14.0007 11.8333C14.5529 11.8333 15.0007 12.281 15.0007 12.8333V18.6666C15.0007 19.2189 14.5529 19.6666 14.0007 19.6666C13.4484 19.6666 13.0007 19.2189 13.0007 18.6666V12.8333C13.0007 12.281 13.4484 11.8333 14.0007 11.8333ZM14.0007 10.4999C14.645 10.4999 15.1673 9.97758 15.1673 9.33325C15.1673 8.68892 14.645 8.16659 14.0007 8.16659C13.3563 8.16659 12.834 8.68892 12.834 9.33325C12.834 9.97758 13.3563 10.4999 14.0007 10.4999Z" />
</svg>
