<svg width="21" height="21" viewBox="0 0 21 21" fill="none" xmlns="http://www.w3.org/2000/svg">
<path fill-rule="evenodd" clip-rule="evenodd" d="M18.3408 2.40346C17.864 1.97009 17.136 1.97009 16.6592 2.40346C16.6405 2.42046 16.6161 2.44457 16.5303 2.53033L16.2233 2.83734C16.1991 3.91352 17.0865 4.80094 18.1627 4.77668L18.4697 4.46967C18.5554 4.38391 18.5795 4.35949 18.5965 4.34079C19.0299 3.86403 19.0299 3.13598 18.5965 2.65922C18.5795 2.64051 18.5554 2.6161 18.4697 2.53033C18.3839 2.44457 18.3595 2.42046 18.3408 2.40346ZM19.0357 6.02495L19.5303 5.53033L19.5429 5.51774C19.6103 5.45041 19.6621 5.39855 19.7065 5.34973C20.6599 4.30086 20.6599 2.69915 19.7065 1.65027C19.6622 1.60147 19.6103 1.54964 19.543 1.48234L19.5429 1.48227L19.5303 1.46967L19.5177 1.45708L19.5177 1.45705L19.5177 1.45702C19.4504 1.3897 19.3985 1.33785 19.3497 1.29349C18.3009 0.340078 16.6991 0.340078 15.6503 1.29349C15.6014 1.33786 15.5496 1.38973 15.4823 1.45709L15.4697 1.46967L14.975 1.96436C14.9711 1.96813 14.9673 1.97195 14.9635 1.9758L11.5365 5.40282L11.463 5.47634C10.7546 6.18441 10.2972 6.64171 9.97841 7.20468C9.65966 7.76766 9.5029 8.39522 9.26017 9.36692L9.23497 9.46781L8.77239 11.3181C8.7085 11.5737 8.78338 11.844 8.96967 12.0303C9.15596 12.2166 9.42632 12.2915 9.6819 12.2276L11.5322 11.765L11.6331 11.7398L11.6331 11.7398L11.6331 11.7398C12.6048 11.4971 13.2324 11.3403 13.7953 11.0216C14.3583 10.7028 14.8156 10.2454 15.5237 9.53702L15.5972 9.46348L19.0241 6.03654C19.028 6.03271 19.0319 6.02885 19.0357 6.02495ZM16.8917 6.04761C16.0064 5.70196 15.298 4.99363 14.9524 4.10827L12.5972 6.46348C11.7904 7.27024 11.4898 7.57964 11.2837 7.94373C11.0776 8.30782 10.9669 8.72475 10.6902 9.83162L10.5308 10.4692L11.1684 10.3098C12.2753 10.0331 12.6922 9.92244 13.0563 9.7163C13.4204 9.51015 13.7298 9.20957 14.5365 8.40282L16.8917 6.04761ZM9.44358 0.750003L9.5 0.750003H10.5C10.9142 0.750003 11.25 1.08579 11.25 1.5C11.25 1.91422 10.9142 2.25 10.5 2.25H9.5C7.59318 2.25 6.23851 2.2516 5.21085 2.38976C4.20476 2.52503 3.62511 2.7787 3.2019 3.20191C2.77869 3.62512 2.52503 4.20476 2.38976 5.21085C2.25159 6.23852 2.25 7.59318 2.25 9.5V11.5C2.25 13.4068 2.25159 14.7615 2.38976 15.7892C2.52503 16.7952 2.7787 17.3749 3.2019 17.7981C3.62511 18.2213 4.20476 18.475 5.21085 18.6102C6.23851 18.7484 7.59318 18.75 9.5 18.75H11.5C13.4068 18.75 14.7615 18.7484 15.7892 18.6102C16.7952 18.475 17.3749 18.2213 17.7981 17.7981C18.2213 17.3749 18.475 16.7952 18.6102 15.7892C18.7484 14.7615 18.75 13.4068 18.75 11.5V10.5C18.75 10.0858 19.0858 9.75 19.5 9.75C19.9142 9.75 20.25 10.0858 20.25 10.5V11.5V11.5564V11.5565C20.25 13.3942 20.25 14.8498 20.0969 15.989C19.9392 17.1614 19.6071 18.1104 18.8588 18.8588C18.1104 19.6071 17.1614 19.9392 15.989 20.0969C14.8498 20.25 13.3942 20.25 11.5565 20.25H11.5564H11.5H9.5H9.44359H9.44355C7.6058 20.25 6.15018 20.25 5.01098 20.0969C3.83856 19.9392 2.88961 19.6071 2.14124 18.8588C1.39288 18.1104 1.06076 17.1614 0.903136 15.989C0.749974 14.8498 0.749986 13.3942 0.75 11.5565V11.5564V11.5V9.5V9.44359V9.44355C0.749986 7.60581 0.749974 6.15019 0.903136 5.01098C1.06076 3.83856 1.39288 2.88961 2.14124 2.14125C2.88961 1.39288 3.83856 1.06077 5.01098 0.903138C6.15019 0.749974 7.60583 0.749987 9.44358 0.750003Z" fill="current"/>
</svg>
