<svg width="24" height="24" viewBox="0 0 24 24" fill="none" xmlns="http://www.w3.org/2000/svg">
<path fill-rule="evenodd" clip-rule="evenodd" d="M11.9998 2.35425C9.43398 2.35425 7.35397 4.43426 7.35397 7.00008C7.35397 9.5659 9.43398 11.6459 11.9998 11.6459C14.5656 11.6459 16.6456 9.5659 16.6456 7.00008C16.6456 4.43426 14.5656 2.35425 11.9998 2.35425ZM8.99937 14.3543L8.94646 14.3543C8.48103 14.3543 8.18499 14.3542 7.92705 14.3871C6.07785 14.6226 4.62182 16.0786 4.38631 17.9278C4.35346 18.1858 4.35348 18.4818 4.35353 18.9472L4.35353 19.0001L4.35352 19.0408C4.35345 19.259 4.3534 19.4271 4.37251 19.5771C4.50886 20.6477 5.35182 21.4906 6.42241 21.627C6.57244 21.6461 6.74053 21.646 6.95866 21.646L6.99937 21.646H16.9994L17.0401 21.646C17.2582 21.646 17.4263 21.6461 17.5763 21.627C18.6469 21.4906 19.4899 20.6477 19.6262 19.5771C19.6453 19.4271 19.6453 19.259 19.6452 19.0409V19.0408L19.6452 19.0001L19.6452 18.9472V18.9472C19.6452 18.4818 19.6453 18.1858 19.6124 17.9278C19.3769 16.0786 17.9209 14.6226 16.0717 14.3871C15.8137 14.3542 15.5177 14.3543 15.0523 14.3543L14.9994 14.3543H8.99937Z" fill="current"/>
</svg>
