<svg width="81" height="81" viewBox="0 0 81 81" fill="none" xmlns="http://www.w3.org/2000/svg">
<path fill-rule="evenodd" clip-rule="evenodd" d="M73.8327 40.5C73.8327 58.9095 58.9088 73.8334 40.4994 73.8334C22.0899 73.8334 7.16602 58.9095 7.16602 40.5C7.16602 22.0905 22.0899 7.16669 40.4994 7.16669C58.9088 7.16669 73.8327 22.0905 73.8327 40.5ZM27.166 48.5V53.1667C27.166 55.0523 27.166 55.9951 27.7518 56.5809C28.3376 57.1667 29.2804 57.1667 31.166 57.1667H49.8327C51.7183 57.1667 52.6611 57.1667 53.2469 56.5809C53.8327 55.9951 53.8327 55.0523 53.8327 53.1667V48.5C53.8327 44.7288 53.8327 42.8432 52.6611 41.6716C51.4895 40.5 49.6039 40.5 45.8327 40.5H35.166C31.3948 40.5 29.5092 40.5 28.3376 41.6716C27.166 42.8432 27.166 44.7288 27.166 48.5ZM40.4993 33.8334C44.1812 33.8334 47.166 30.8486 47.166 27.1667C47.166 23.4848 44.1812 20.5 40.4993 20.5C36.8174 20.5 33.8327 23.4848 33.8327 27.1667C33.8327 30.8486 36.8174 33.8334 40.4993 33.8334Z" fill="current"/>
</svg>
