<svg width="20" height="20" viewBox="0 0 20 20" fill="none" xmlns="http://www.w3.org/2000/svg">
<path fill-rule="evenodd" clip-rule="evenodd" d="M15.6995 3.25306C15.3022 2.89189 14.6954 2.89188 14.2981 3.25304C14.2825 3.2672 14.2622 3.28729 14.1907 3.35874L13.9348 3.61467C13.9146 4.51145 14.6541 5.25092 15.5509 5.2307L15.8068 4.97481C15.8783 4.90336 15.8983 4.88303 15.9125 4.86744C16.2736 4.47015 16.2737 3.86343 15.9125 3.46613C15.8984 3.45054 15.8783 3.43021 15.8068 3.35876C15.7354 3.28731 15.715 3.26722 15.6995 3.25306ZM16.2784 6.27095L16.6907 5.85869L16.7012 5.84819L16.7013 5.84808C16.7573 5.79205 16.8005 5.74888 16.8375 5.70825C17.632 4.83419 17.632 3.49942 16.8375 2.62535C16.8005 2.58467 16.7573 2.54147 16.7012 2.48537L16.7012 2.48534L16.6907 2.4749L16.6803 2.46444L16.6802 2.46441L16.6802 2.46435C16.6241 2.40827 16.5809 2.36507 16.5403 2.32812C15.6662 1.53355 14.3314 1.53353 13.4573 2.32807C13.4166 2.36505 13.3734 2.40827 13.3173 2.46439L13.3069 2.47485L12.8977 2.88398C12.8923 2.88917 12.8871 2.89446 12.8819 2.89984L7.52917 8.25247L7.46787 8.31375C6.87757 8.90381 6.49634 9.28489 6.23071 9.75404C5.96508 10.2232 5.83444 10.7462 5.63217 11.5559L5.61116 11.64L5.22569 13.1819C5.17245 13.3949 5.23485 13.6202 5.39009 13.7754C5.54533 13.9306 5.77063 13.9931 5.98362 13.9398L7.52552 13.5543L7.60961 13.5333C8.41936 13.3311 8.94232 13.2004 9.41147 12.9348C9.88061 12.6692 10.2617 12.2879 10.8518 11.6976L10.913 11.6364L16.2688 6.28055C16.2721 6.27738 16.2753 6.27419 16.2784 6.27095ZM14.4918 6.28981C13.754 6.00178 13.1638 5.41152 12.8757 4.67375L8.41304 9.13636C7.74073 9.80866 7.49024 10.0665 7.31845 10.3699C7.14667 10.6733 7.05444 11.0208 6.82384 11.9432L6.69101 12.4745L7.22235 12.3417C8.14474 12.1111 8.49219 12.0188 8.79559 11.847C9.099 11.6753 9.35684 11.4248 10.0291 10.7525L14.4918 6.28981ZM2.70703 17.5001C2.70703 17.155 2.98685 16.8751 3.33203 16.8751H16.6654C17.0105 16.8751 17.2904 17.155 17.2904 17.5001C17.2904 17.8453 17.0105 18.1251 16.6654 18.1251H3.33203C2.98685 18.1251 2.70703 17.8453 2.70703 17.5001Z" fill="#4D84E7"/>
</svg>
